<svg height="40" viewBox="0 0 40 40" width="40" xmlns="http://www.w3.org/2000/svg"><g fill="none" fill-rule="evenodd" transform=""><path d="m39.25 39.25v-32.34615385h-37.25c-.69035594 0-1.25.55964407-1.25 1.25v27.84615385c0 1.7949254 1.45507456 3.25 3.25 3.25z" stroke="#09c269" stroke-width="1.5"/><path d="m39.25.93979559c.0756795-.0641311.154137-.1273994.2353462-.18979559.0214543-.01648419.0431007-.03290752.0649387-.0492698l-.3002849.60021358v-1.30094378l.75.75h-36.16384491c-1.70443639 0-3.08615509 1.3817187-3.08615509 3.08615509v2.83615509c0 .13807119.11192881.25.25.25h38.25v-.2679413c-1.0075416-.90322327-1.5230175-1.89438296-1.483536-2.96246094.0383395-1.03718343.549251-1.96039586 1.483536-2.75211235z" stroke="#09c269" stroke-width="1.5"/><g fill="#09c269"><path d="m10.25641 13.333333h19.48718v1.538462h-19.48718z"/><path d="m10.25641 19.48718h13.333333v1.538462h-13.333333z"/></g></g></svg>