<?xml version="1.0" encoding="UTF-8"?>
<svg width="48px" height="48px" viewBox="0 0 48 48" version="1.1" xmlns="http://www.w3.org/2000/svg" xmlns:xlink="http://www.w3.org/1999/xlink">
    <!-- Generator: Sketch 60.1 (88133) - https://sketch.com -->
    <title>handshake-icon</title>
    <desc>Created with Sketch.</desc>
    <defs>
        <polygon id="path-1" points="8.32851226e-05 0.000326156551 47.67 0.000326156551 47.67 40.0003262 8.32851226e-05 40.0003262"></polygon>
    </defs>
    <g id="handshake-icon" stroke="none" stroke-width="1" fill="none" fill-rule="evenodd">
        <g id="icon-handshake" transform="translate(0.000000, 4.000000)">
            <mask id="mask-2" fill="white">
                <use xlink:href="#path-1"></use>
            </mask>
            <g id="path-1"></g>
            <path d="M46.1398,20.3404131 C45.2898,21.0944131 43.6168,22.4454131 41.9468,23.0214131 C40.0938,23.6604131 38.6628,24.1974131 38.1338,24.3984131 L38.0228,24.4414131 L37.6628,24.1334131 C29.6098,17.2684131 25.7088,13.9394131 25.0158,13.3384131 C24.8538,13.1954131 24.6288,13.1464131 24.4068,13.2194131 C22.9398,13.7184131 21.2788,13.9834131 19.6048,13.9834131 C17.3158,13.9834131 15.2578,13.4634131 14.3618,12.6574131 C14.0608,12.3854131 13.9208,12.1144131 13.9328,11.8264131 C13.9638,11.1634131 14.7438,10.4934131 14.8328,10.4194131 L14.8888,10.3864131 L24.3708,6.72641308 L24.4388,6.74741308 L33.4508,9.58441308 C33.5588,9.61841308 33.6778,9.62241308 33.7868,9.59441308 L39.1848,8.24541308 L39.2598,8.37441308 L46.2628,20.2314131 L46.1398,20.3404131 Z M37.3008,27.9114131 C36.7568,28.7394131 35.7278,28.9824131 35.1618,29.0534131 L35.0678,29.0654131 L34.9988,29.0014131 L26.0988,20.5564131 C25.8648,20.3354131 25.4468,20.3444131 25.2198,20.5814131 C25.1068,20.7014131 25.0458,20.8584131 25.0508,21.0254131 C25.0558,21.1904131 25.1238,21.3434131 25.2438,21.4554131 L34.2278,29.9794131 L34.2278,30.0654131 C34.2238,30.5344131 34.1508,31.6704131 33.5348,32.1104131 C32.8248,32.6164131 31.5678,32.7934131 31.0608,32.8454131 L30.9618,32.8554131 L30.8948,32.7834131 L23.4488,24.8704131 C23.3428,24.7574131 23.1838,24.6904131 23.0148,24.6844131 C22.8458,24.6804131 22.6838,24.7384131 22.5708,24.8434131 C22.4488,24.9584131 22.3798,25.1114131 22.3748,25.2764131 C22.3698,25.4424131 22.4298,25.6004131 22.5438,25.7214131 L30.0068,33.6524131 L29.9428,33.7774131 C29.7578,34.1384131 29.3928,34.6454131 28.7028,35.0104131 C28.5128,35.1104131 28.2808,35.1604131 28.0118,35.1604131 C27.0428,35.1604131 25.9348,34.5454131 25.6188,34.3564131 L25.5788,34.3254131 L20.7278,29.4364131 C20.6178,29.3254131 20.4578,29.2614131 20.2888,29.2604131 L20.2858,29.2604131 C20.1188,29.2604131 19.9588,29.3234131 19.8478,29.4324131 C19.7308,29.5494131 19.6648,29.7064131 19.6648,29.8714131 C19.6638,30.0374131 19.7278,30.1934131 19.8458,30.3114131 L24.3218,34.8204131 L24.1558,34.9604131 C23.8148,35.2494131 22.9548,35.9324131 22.3408,36.0524131 L22.3068,36.0594131 L22.2728,36.0534131 C21.6438,35.9594131 19.5268,34.6464131 17.3478,33.0014131 L17.1918,32.8834131 L17.3058,32.7244131 C17.7268,32.1394131 18.6608,30.6324131 18.2338,29.2824131 C17.9738,28.4554131 17.1288,27.9124131 15.8558,27.7534131 L15.6118,27.7224131 L15.6908,27.4904131 C15.8938,26.8954131 16.0478,25.9804131 15.6358,25.0004131 C15.2748,24.1454131 14.5608,23.6344131 13.5698,23.5254131 L13.3498,23.5014131 L13.3968,23.2844131 C13.5878,22.3934131 13.3568,21.5334131 12.7108,20.7264131 C11.9858,19.8194131 10.9328,19.4334131 9.8208,19.6714131 L9.6308,19.7114131 L9.5848,19.5224131 C9.4008,18.7544131 8.8748,18.1834131 8.0638,17.8694131 C6.9478,17.4384131 5.8108,17.6084131 4.7718,18.3514131 L4.6138,18.4654131 L4.4958,18.3094131 C3.5158,17.1324131 2.8318,16.2734131 2.4118,15.6744131 C1.2938,14.0794131 0.9808,14.3194131 1.6828,12.4274131 C2.9728,8.94941308 6.4488,6.09541308 8.1188,4.72341308 C8.4648,4.43941308 8.7388,4.21541308 8.8868,4.07041308 L8.9658,3.99441308 L9.0728,4.02041308 C10.5078,4.36541308 14.3088,5.37141308 18.5988,7.25541308 L19.0428,7.45041308 L14.3238,9.27141308 C14.2708,9.29241308 14.2208,9.31941308 14.1818,9.34941308 C14.0328,9.45941308 12.7558,10.4314131 12.6928,11.7634131 C12.6698,12.2284131 12.7958,12.9204131 13.5308,13.5804131 C14.6738,14.6104131 16.9438,15.2254131 19.6028,15.2254131 C21.2348,15.2254131 22.8808,14.9874131 24.3638,14.5374131 L24.4678,14.5064131 L24.5508,14.5774131 C26.7858,16.4974131 36.1578,24.4824131 37.3668,25.5124131 L37.5008,25.6284131 L37.5158,25.6944131 C37.7128,26.6464131 37.6408,27.3924131 37.3008,27.9114131 Z M15.5428,32.8354131 C15.1068,33.1734131 14.4968,33.4624131 14.0618,33.6434131 L13.9758,33.6794131 L13.8928,33.6364131 C13.3998,33.3824131 12.4068,32.8394131 11.2888,32.0484131 L11.0708,31.8954131 L14.7788,28.9474131 L14.9808,28.9444131 C15.8728,28.9444131 16.8858,29.1324131 17.0508,29.6574131 C17.3608,30.6374131 16.2348,32.2954131 15.5428,32.8354131 Z M9.9368,31.0034131 C9.2258,30.4034131 8.5938,29.7724131 8.0558,29.1284131 L7.9328,28.9804131 L12.5278,24.8124131 L12.5828,24.8014131 C12.7168,24.7754131 12.9268,24.7444131 13.1628,24.7444131 C14.1818,24.7444131 14.4148,25.3004131 14.4918,25.4834131 C14.9498,26.5724131 14.3228,27.5904131 14.1188,27.8764131 L14.0808,27.9164131 L10.0618,31.1094131 L9.9368,31.0034131 Z M7.1978,27.9724131 L7.0698,27.7744131 C6.5238,26.9314131 6.0118,26.0264131 5.5468,25.0864131 L5.4818,24.9564131 L9.3278,21.1944131 C9.5338,21.0674131 9.9758,20.8404131 10.4818,20.8404131 C10.9738,20.8404131 11.3858,21.0574131 11.7418,21.5034131 C12.6948,22.6954131 11.9558,23.6234131 11.7978,23.7984131 L7.1978,27.9724131 Z M4.8128,23.4894131 C4.3788,22.4654131 4.1048,21.6564131 3.9798,21.2644131 L3.9528,21.1804131 L3.9978,21.1034131 C4.3878,20.4344131 5.4448,18.8764131 6.8488,18.8764131 C7.0988,18.8764131 7.3578,18.9274131 7.6178,19.0284131 C8.1988,19.2544131 8.4868,19.7164131 8.4068,20.2974131 L8.3978,20.3654131 L4.9278,23.7584131 L4.8128,23.4894131 Z M47.5838,20.0264131 L40.0178,7.21441308 C39.8798,6.98341308 39.5858,6.86541308 39.3318,6.92841308 L33.6558,8.34641308 L33.6008,8.33041308 L24.5348,5.47641308 C24.4018,5.43441308 24.2558,5.43841308 24.1258,5.48941308 L20.6658,6.82441308 L20.5878,6.78741308 C14.6528,3.94941308 9.1478,2.75941308 8.9158,2.71041308 C8.7298,2.67341308 8.5308,2.72141308 8.3828,2.84541308 C8.3678,2.85941308 8.3058,2.89841308 8.2048,2.95941308 C5.1248,4.80941308 2.5828,7.51841308 1.0488,10.5864131 C-0.4972,13.6804131 -0.3742,13.8444131 1.6868,16.5964131 C2.2038,17.2864131 2.8478,18.1454131 3.6108,19.2454131 L3.6958,19.3674131 L3.6018,19.4844131 C3.0808,20.1344131 2.7788,20.7354131 2.7228,20.8494131 C2.6598,20.9844131 2.6458,21.1384131 2.6858,21.2824131 C2.7288,21.4364131 3.7668,25.1084131 6.2948,28.8574131 C8.8548,32.6534131 13.4888,34.8294131 13.6848,34.9204131 C13.8328,34.9894131 13.9898,34.9984131 14.1668,34.9374131 C14.4538,34.8324131 15.4628,34.4364131 16.2218,33.8744131 L16.3418,33.7854131 L16.4618,33.8764131 C19.1078,35.8934131 21.5168,37.3024131 22.3188,37.3024131 C22.3698,37.3024131 22.4188,37.2984131 22.4638,37.2934131 C23.4658,37.1484131 24.6098,36.2324131 25.2018,35.6994131 L25.3038,35.6064131 L25.4258,35.6704131 C26.0798,36.0054131 27.0598,36.4034131 28.0128,36.4034131 C28.4888,36.4034131 28.9158,36.3044131 29.2848,36.1094131 C30.3368,35.5514131 30.8668,34.7564131 31.1248,34.1864131 L31.1718,34.0844131 L31.2848,34.0704131 C32.0108,33.9894131 33.3628,33.7574131 34.2528,33.1234131 C35.1988,32.4514131 35.4158,31.1434131 35.4618,30.4244131 L35.4718,30.2694131 L35.6248,30.2414131 C36.3188,30.1134131 37.5928,29.7294131 38.3388,28.5924131 C38.8218,27.8574131 38.9558,26.8754131 38.7408,25.6724131 L38.7108,25.5074131 L38.8678,25.4494131 C39.4818,25.2174131 40.7508,24.7484131 42.3508,24.1954131 C44.8948,23.3184131 47.2308,21.0384131 47.4888,20.7814131 C47.6888,20.5814131 47.7278,20.2714131 47.5838,20.0264131 Z" id="Fill-1" fill="#09C269" fill-rule="nonzero" mask="url(#mask-2)"></path>
        </g>
    </g>
</svg>